<mxfile host="app.diagrams.net" agent="Mozilla/5.0 (Windows NT 10.0; Win64; x64; rv:139.0) Gecko/20100101 Firefox/139.0" version="27.1.6">
  <diagram name="dwh_erd" id="c4JmlAxE6GxDs_y0Vj43">
    <mxGraphModel dx="1391" dy="615" grid="0" gridSize="10" guides="1" tooltips="1" connect="1" arrows="1" fold="1" page="0" pageScale="1" pageWidth="1169" pageHeight="827" math="0" shadow="0">
      <root>
        <mxCell id="0" />
        <mxCell id="1" parent="0" />
        <mxCell id="adYX-iNX98_D1kljVrt_-1" value="fct_book_order" style="rounded=1;whiteSpace=wrap;html=1;fillColor=#fff2cc;strokeColor=#d6b656;" vertex="1" parent="1">
          <mxGeometry x="137" y="200" width="126" height="30" as="geometry" />
        </mxCell>
        <mxCell id="adYX-iNX98_D1kljVrt_-2" value="fct_customer_behavior" style="rounded=1;whiteSpace=wrap;html=1;fillColor=#fff2cc;strokeColor=#d6b656;" vertex="1" parent="1">
          <mxGeometry x="136" y="260" width="128" height="30" as="geometry" />
        </mxCell>
        <mxCell id="adYX-iNX98_D1kljVrt_-14" style="edgeStyle=none;curved=1;rounded=0;orthogonalLoop=1;jettySize=auto;html=1;entryX=1;entryY=0.5;entryDx=0;entryDy=0;fontSize=12;startSize=8;endSize=8;exitX=0;exitY=0.5;exitDx=0;exitDy=0;" edge="1" parent="1" source="adYX-iNX98_D1kljVrt_-3" target="adYX-iNX98_D1kljVrt_-1">
          <mxGeometry relative="1" as="geometry" />
        </mxCell>
        <mxCell id="adYX-iNX98_D1kljVrt_-19" style="edgeStyle=none;curved=1;rounded=0;orthogonalLoop=1;jettySize=auto;html=1;entryX=1;entryY=0.5;entryDx=0;entryDy=0;fontSize=12;startSize=8;endSize=8;exitX=0;exitY=0.5;exitDx=0;exitDy=0;" edge="1" parent="1" source="adYX-iNX98_D1kljVrt_-3" target="adYX-iNX98_D1kljVrt_-2">
          <mxGeometry relative="1" as="geometry" />
        </mxCell>
        <mxCell id="adYX-iNX98_D1kljVrt_-3" value="dim_date" style="rounded=1;whiteSpace=wrap;html=1;fillColor=#d5e8d4;strokeColor=#82b366;" vertex="1" parent="1">
          <mxGeometry x="311" y="260" width="126" height="30" as="geometry" />
        </mxCell>
        <mxCell id="adYX-iNX98_D1kljVrt_-16" style="edgeStyle=none;curved=1;rounded=0;orthogonalLoop=1;jettySize=auto;html=1;entryX=1;entryY=0.5;entryDx=0;entryDy=0;fontSize=12;startSize=8;endSize=8;exitX=0;exitY=0.5;exitDx=0;exitDy=0;" edge="1" parent="1" source="adYX-iNX98_D1kljVrt_-4" target="adYX-iNX98_D1kljVrt_-1">
          <mxGeometry relative="1" as="geometry" />
        </mxCell>
        <mxCell id="adYX-iNX98_D1kljVrt_-4" value="dim_time" style="rounded=1;whiteSpace=wrap;html=1;fillColor=#d5e8d4;strokeColor=#82b366;" vertex="1" parent="1">
          <mxGeometry x="311" y="200" width="126" height="30" as="geometry" />
        </mxCell>
        <mxCell id="adYX-iNX98_D1kljVrt_-10" style="edgeStyle=none;curved=1;rounded=0;orthogonalLoop=1;jettySize=auto;html=1;entryX=0;entryY=0.5;entryDx=0;entryDy=0;fontSize=12;startSize=8;endSize=8;exitX=1;exitY=0.5;exitDx=0;exitDy=0;" edge="1" parent="1" source="adYX-iNX98_D1kljVrt_-5" target="adYX-iNX98_D1kljVrt_-1">
          <mxGeometry relative="1" as="geometry" />
        </mxCell>
        <mxCell id="adYX-iNX98_D1kljVrt_-15" style="edgeStyle=none;curved=1;rounded=0;orthogonalLoop=1;jettySize=auto;html=1;entryX=0;entryY=0.5;entryDx=0;entryDy=0;fontSize=12;startSize=8;endSize=8;exitX=1;exitY=0.5;exitDx=0;exitDy=0;" edge="1" parent="1" source="adYX-iNX98_D1kljVrt_-5" target="adYX-iNX98_D1kljVrt_-2">
          <mxGeometry relative="1" as="geometry" />
        </mxCell>
        <mxCell id="adYX-iNX98_D1kljVrt_-5" value="dim_customer" style="rounded=1;whiteSpace=wrap;html=1;fillColor=#d5e8d4;strokeColor=#82b366;" vertex="1" parent="1">
          <mxGeometry x="-37" y="170" width="126" height="30" as="geometry" />
        </mxCell>
        <mxCell id="adYX-iNX98_D1kljVrt_-13" style="edgeStyle=none;curved=1;rounded=0;orthogonalLoop=1;jettySize=auto;html=1;entryX=0;entryY=0.5;entryDx=0;entryDy=0;fontSize=12;startSize=8;endSize=8;exitX=1;exitY=0.5;exitDx=0;exitDy=0;" edge="1" parent="1" source="adYX-iNX98_D1kljVrt_-6" target="adYX-iNX98_D1kljVrt_-1">
          <mxGeometry relative="1" as="geometry" />
        </mxCell>
        <mxCell id="adYX-iNX98_D1kljVrt_-6" value="dim_address" style="rounded=1;whiteSpace=wrap;html=1;fillColor=#d5e8d4;strokeColor=#82b366;" vertex="1" parent="1">
          <mxGeometry x="-37" y="293" width="126" height="30" as="geometry" />
        </mxCell>
        <mxCell id="adYX-iNX98_D1kljVrt_-11" style="edgeStyle=none;curved=1;rounded=0;orthogonalLoop=1;jettySize=auto;html=1;entryX=0;entryY=0.5;entryDx=0;entryDy=0;fontSize=12;startSize=8;endSize=8;exitX=1;exitY=0.5;exitDx=0;exitDy=0;" edge="1" parent="1" source="adYX-iNX98_D1kljVrt_-7" target="adYX-iNX98_D1kljVrt_-1">
          <mxGeometry relative="1" as="geometry" />
        </mxCell>
        <mxCell id="adYX-iNX98_D1kljVrt_-17" style="edgeStyle=none;curved=1;rounded=0;orthogonalLoop=1;jettySize=auto;html=1;entryX=1;entryY=0.5;entryDx=0;entryDy=0;fontSize=12;startSize=8;endSize=8;" edge="1" parent="1" source="adYX-iNX98_D1kljVrt_-7" target="adYX-iNX98_D1kljVrt_-8">
          <mxGeometry relative="1" as="geometry" />
        </mxCell>
        <mxCell id="adYX-iNX98_D1kljVrt_-7" value="&lt;div&gt;dim_book&lt;/div&gt;" style="rounded=1;whiteSpace=wrap;html=1;fillColor=#d5e8d4;strokeColor=#82b366;" vertex="1" parent="1">
          <mxGeometry x="-37" y="230" width="126" height="30" as="geometry" />
        </mxCell>
        <mxCell id="adYX-iNX98_D1kljVrt_-8" value="bridge_book_author" style="rounded=1;whiteSpace=wrap;html=1;fillColor=#dae8fc;strokeColor=#6c8ebf;" vertex="1" parent="1">
          <mxGeometry x="-210" y="230" width="126" height="30" as="geometry" />
        </mxCell>
        <mxCell id="adYX-iNX98_D1kljVrt_-18" style="edgeStyle=none;curved=1;rounded=0;orthogonalLoop=1;jettySize=auto;html=1;entryX=0;entryY=0.5;entryDx=0;entryDy=0;fontSize=12;startSize=8;endSize=8;" edge="1" parent="1" source="adYX-iNX98_D1kljVrt_-9" target="adYX-iNX98_D1kljVrt_-8">
          <mxGeometry relative="1" as="geometry" />
        </mxCell>
        <mxCell id="adYX-iNX98_D1kljVrt_-9" value="dim_author" style="rounded=1;whiteSpace=wrap;html=1;fillColor=#d5e8d4;strokeColor=#82b366;" vertex="1" parent="1">
          <mxGeometry x="-383" y="230" width="126" height="30" as="geometry" />
        </mxCell>
      </root>
    </mxGraphModel>
  </diagram>
</mxfile>
